<svg id="Layer_1" data-name="Layer 1" xmlns="http://www.w3.org/2000/svg" viewBox="0 0 26.58 31.54"><defs><style>.cls-1{fill:#f4ede9;}.cls-2{fill:#f07522;}</style></defs><path class="cls-1" d="M15.94,28.59A10.56,10.56,0,0,0,26.25,17.82a11,11,0,0,0-2.8-7.35A10.94,10.94,0,0,1,26,17.57c0,5.88-4.53,10.66-10.1,10.66S5.84,23.45,5.84,17.57a10.93,10.93,0,0,1,2.63-7.15,11,11,0,0,0-2.85,7.4A10.56,10.56,0,0,0,15.94,28.59Z" transform="translate(-2.65 -0.23)"/><path class="cls-1" d="M15.94,30.66a12.72,12.72,0,0,0,12.7-12.57A12.85,12.85,0,0,0,15.94,5.25,12.85,12.85,0,0,0,3.24,18.09,12.72,12.72,0,0,0,15.94,30.66Zm0-24.19a11.14,11.14,0,0,1,10.9,11.35,11.15,11.15,0,0,1-10.9,11.36A11.15,11.15,0,0,1,5,17.82,11.14,11.14,0,0,1,15.94,6.47Z" transform="translate(-2.65 -0.23)"/><path class="cls-1" d="M15.94,27.64c5.24,0,9.51-4.52,9.51-10.07S21.18,7.49,15.94,7.49,6.43,12,6.43,17.57,10.7,27.64,15.94,27.64Zm.61-18.31a.83.83,0,0,1,.33-.53l.3-.22-.33,8.59a.83.83,0,0,1-.91.79.82.82,0,0,1-.72-1Z" transform="translate(-2.65 -0.23)"/><path class="cls-1" d="M17.59.83C17,.77,16.3.86,16,2.38a8.11,8.11,0,0,1,1.56,0,10.9,10.9,0,0,1,1.25.2C18.69,1,18.31.9,17.59.83Z" transform="translate(-2.65 -0.23)"/><path class="cls-1" d="M17.42,3.56a6.57,6.57,0,0,0-5.24,1.65,13.4,13.4,0,0,1,3.76-.54A13.26,13.26,0,0,1,21.77,6C21.21,4.63,19.78,3.81,17.42,3.56Z" transform="translate(-2.65 -0.23)"/><path class="cls-1" d="M15.94,7.05a10.06,10.06,0,0,1,7.51,3.42,9.7,9.7,0,0,0-15-.05A10.07,10.07,0,0,1,15.94,7.05Z" transform="translate(-2.65 -0.23)"/><path class="cls-1" d="M12.17,5.23v0a13.7,13.7,0,0,0-1.84.71V6A13.24,13.24,0,0,1,12.17,5.23Z" transform="translate(-2.65 -0.23)"/><path class="cls-1" d="M21.78,6.06a13.94,13.94,0,0,1,1.41.81v0A13.23,13.23,0,0,0,21.77,6Z" transform="translate(-2.65 -0.23)"/><path class="cls-1" d="M15.9,3c0-.22.06-.41.09-.59l-.6.07c0,.15-.06.29-.08.45Z" transform="translate(-2.65 -0.23)"/><path class="cls-1" d="M18.83,3.29h.58c0-.19,0-.36,0-.53L18.8,2.6C18.81,2.81,18.82,3,18.83,3.29Z" transform="translate(-2.65 -0.23)"/><path class="cls-1" d="M15.94,31.25A13.3,13.3,0,0,0,29.22,18.09a13.6,13.6,0,0,0-6-11.22l0,.32a13.3,13.3,0,0,0-1.31-.78,2.48,2.48,0,0,0-.13-.35,13,13,0,0,0-9.61-.83,4.55,4.55,0,0,0-.35.4,12.82,12.82,0,0,0-1.62.67A3.62,3.62,0,0,1,10.33,6,13.56,13.56,0,0,0,2.66,18.09,13.3,13.3,0,0,0,15.94,31.25ZM3.24,18a12.7,12.7,0,1,1,25.4,0v.26a12.84,12.84,0,0,1-12.7,13,12.84,12.84,0,0,1-12.7-13V18Z" transform="translate(-2.65 -0.23)"/><path class="cls-2" d="M15.94,31.25A13.29,13.29,0,1,1,29.23,18,13.3,13.3,0,0,1,15.94,31.25Zm0-26A12.71,12.71,0,1,0,28.64,18,12.71,12.71,0,0,0,15.94,5.25Z" transform="translate(-2.65 -0.23)"/><path class="cls-2" d="M15.94,28.23c-5.57,0-10.1-4.78-10.1-10.66S10.37,6.91,15.94,6.91,26,11.69,26,17.57,21.51,28.23,15.94,28.23Zm0-20.74C10.7,7.49,6.43,12,6.43,17.57s4.27,10.07,9.51,10.07,9.51-4.52,9.51-10.07S21.18,7.49,15.94,7.49Z" transform="translate(-2.65 -0.23)"/><path class="cls-2" d="M15.94,18h0a.82.82,0,0,1-.72-1l1.33-7.67a.83.83,0,0,1,.33-.53l.3-.22-.33,8.59A.83.83,0,0,1,15.94,18Z" transform="translate(-2.65 -0.23)"/><path class="cls-2" d="M18.83,3.29C18.79,1,18.4.91,17.59.83S16.14.87,15.9,3l-.59-.07c.23-2,1-2.78,2.34-2.65s1.73.77,1.76,3Z" transform="translate(-2.65 -0.23)"/><path class="cls-2" d="M15.94,29.18A11.15,11.15,0,0,1,5,17.82,11.14,11.14,0,0,1,15.94,6.47a11.14,11.14,0,0,1,10.9,11.35A11.15,11.15,0,0,1,15.94,29.18Zm0-22.13A10.57,10.57,0,0,0,5.62,17.82,10.56,10.56,0,0,0,15.94,28.59,10.56,10.56,0,0,0,26.25,17.82,10.56,10.56,0,0,0,15.94,7.05Z" transform="translate(-2.65 -0.23)"/><path class="cls-2" d="M11.82,5.63C13,4,15.37,3.35,17.42,3.56c2.57.28,4,1.22,4.49,2.85a13.3,13.3,0,0,1,1.31.78c-.12-2-1.22-4.32-5.67-4.79-2.91-.32-6.42,1-7.35,3.9A11.5,11.5,0,0,1,11.82,5.63Z" transform="translate(-2.65 -0.23)"/><path class="cls-2" d="M15.94,31.77A13.44,13.44,0,0,1,2.65,18.22,13.43,13.43,0,0,1,15.94,4.67,13.43,13.43,0,0,1,29.23,18.22,13.44,13.44,0,0,1,15.94,31.77Zm0-26.52a12.85,12.85,0,0,0-12.7,13,12.84,12.84,0,0,0,12.7,13,12.84,12.84,0,0,0,12.7-13A12.85,12.85,0,0,0,15.94,5.25Z" transform="translate(-2.65 -0.23)"/></svg>